<?xml version="1.0" encoding="UTF-8"?> <svg xmlns="http://www.w3.org/2000/svg" xmlns:xlink="http://www.w3.org/1999/xlink" version="1.1" id="Layer_1" x="0px" y="0px" viewBox="0 0 219.7 39.4" style="enable-background:new 0 0 219.7 39.4;" xml:space="preserve"> <style type="text/css"> .st0{fill:#FFFFFF;} </style> <rect x="167.3" y="0" class="st0" width="9.8" height="9.8"></rect> <polygon class="st0" points="167.3,9.9 157.5,9.9 157.5,19.7 147.6,19.7 147.6,29.5 157.5,29.5 167.3,29.5 167.3,19.7 "></polygon> <rect x="167.3" y="29.5" class="st0" width="9.8" height="9.8"></rect> <rect x="137.8" y="29.5" class="st0" width="9.8" height="9.8"></rect> <rect x="137.8" y="0" class="st0" width="9.8" height="9.8"></rect> <path class="st0" d="M21.2,8.7v30.7h-9.7V8.7H0L0.2,0h32.3l0.2,8.7H21.2z"></path> <path class="st0" d="M67.9,23.8l9.2,15.6H65.8l-6.7-13.8h-6.1v13.8h-9.7V0h15.7c10.6,0,16,4,16,12.7C75.1,18.4,72.5,22.5,67.9,23.8z M59.2,7.6h-6.1v11.1H59c4.3,0,6-1.2,6-5.7C65,8.9,63.4,7.6,59.2,7.6z"></path> <path class="st0" d="M114.8,31.7H99.2l-2.4,7.7H86.7L101.5,0H113l15,39.4h-10.8L114.8,31.7z M105.9,10.8l-4.3,13.5h10.9l-4.1-13.5 l-1.1-4.1h-0.2L105.9,10.8z"></path> <path class="st0" d="M187,0h9.8v39.4H187V0z"></path> <g> <path class="st0" d="M210.9,8.9c-1.5,0-2.1-0.7-2.1-2.4s0.7-2.4,2.1-2.4c1.5,0,2.1,0.7,2.1,2.4S212.4,8.9,210.9,8.9z M210.9,7.8 c0.5,0,0.7-0.2,0.7-1.2c0-1-0.2-1.2-0.7-1.2c-0.5,0-0.7,0.2-0.7,1.2C210.2,7.6,210.4,7.8,210.9,7.8z"></path> </g> <g> <path class="st0" d="M216.1,8.8V6c0-0.4-0.2-0.6-0.6-0.6c-0.2,0-0.5,0.1-0.6,0.3v3.1h-1.4V4.3l1-0.1l0.2,0.4 c0.3-0.3,0.8-0.4,1.2-0.4c1,0,1.6,0.6,1.6,1.8v2.8H216.1z"></path> </g> <path class="st0" d="M213.2,13.1c-3.6,0-6.6-2.9-6.6-6.5s2.9-6.5,6.6-6.5s6.6,2.9,6.6,6.5S216.8,13.1,213.2,13.1z M213.2,1 c-3.1,0-5.6,2.5-5.6,5.6c0,3.1,2.5,5.6,5.6,5.6c3.1,0,5.6-2.5,5.6-5.6C218.7,3.5,216.2,1,213.2,1z"></path> </svg> 